Coordinates
version=1
nRows=11
nColumns=40
inDegrees=yes

Units are S.I. units (second, meters, Newtons, ...)
Angles are in degrees.

endheader
time	pelvis_tilt	pelvis_list	pelvis_rotation	pelvis_tx	pelvis_ty	pelvis_tz	hip_flexion_r	hip_adduction_r	hip_rotation_r	knee_angle_r	knee_angle_r_beta	ankle_angle_r	subtalar_angle_r	mtp_angle_r	hip_flexion_l	hip_adduction_l	hip_rotation_l	knee_angle_l	knee_angle_l_beta	ankle_angle_l	subtalar_angle_l	mtp_angle_l	lumbar_extension	lumbar_bending	lumbar_rotation	arm_flex_r	arm_add_r	arm_rot_r	elbow_flex_r	pro_sup_r	wrist_flex_r	wrist_dev_r	arm_flex_l	arm_add_l	arm_rot_l	elbow_flex_l	pro_sup_l	wrist_flex_l	wrist_dev_l
     46.34000000	     -3.81405175	     -5.90391650	      1.33078391	      0.94036088	      0.92810582	      0.50774033	     14.98616845	      4.31843242	    -15.94551434	     17.99121508	     17.99121508	      9.72965567	      2.65429056	     -4.64569750	     28.35072114	    -12.68909974	      0.64596883	     63.92903610	     63.92903610	      8.58245775	    -15.24688845	      6.57956339	    -10.35419269	      7.47412255	      2.51495105	     21.67832691	    -15.10501999	      0.47311991	     42.11059678	     45.23528546	      0.00000000	      0.00000000	      4.49693896	     -7.07535182	     -6.01086333	     28.51033746	     45.13094680	      0.00000000	      0.00000000
     46.35300000	     -3.77249938	     -5.82394944	      1.79629497	      0.93950993	      0.92908636	      0.50780964	     14.08679995	      4.32370982	    -16.22108454	     17.18352060	     17.18352060	      9.87861550	      2.86690278	     -4.61715442	     29.41338707	    -12.59746555	      0.54085954	     61.71047621	     61.71047621	      8.65432859	    -15.63489199	      6.69493623	    -10.38316238	      7.51112301	      2.40925366	     23.45938924	    -15.02766082	      0.36619099	     43.37052607	     45.20962330	      0.00000000	      0.00000000	      3.39989528	     -6.97721437	     -5.91473697	     27.88983400	     45.11429960	      0.00000000	      0.00000000
     46.36600000	     -3.73550842	     -5.73178055	      2.25303384	      0.93865996	      0.92995915	      0.50783704	     13.23655538	      4.31400741	    -16.49266284	     16.45648752	     16.45648752	     10.02775997	      3.03924274	     -4.67841374	     30.28097957	    -12.43694812	      0.40140380	     59.17799010	     59.17799010	      8.66039713	    -15.97475956	      6.83945570	    -10.41945209	      7.55027267	      2.31947735	     25.16392403	    -14.99225017	      0.28740724	     44.92765825	     45.17089206	      0.00000000	      0.00000000	      2.28067984	     -6.89238390	     -5.77952136	     27.39894409	     45.08975156	      0.00000000	      0.00000000
     46.37900000	     -3.73124930	     -5.61237290	      2.66123872	      0.93780184	      0.93067435	      0.50783791	     12.46292134	      4.27897617	    -16.69241489	     15.78967112	     15.78967112	     10.17256430	      3.15474985	     -4.74337673	     30.97707958	    -12.20400366	      0.20689445	     56.35104798	     56.35104798	      8.69913909	    -16.20834238	      7.14873413	    -10.44617471	      7.54140879	      2.36886394	     26.76009775	    -15.02444026	      0.21576806	     46.44218386	     45.13165926	      0.00000000	      0.00000000	      1.24152319	     -6.81023035	     -5.64039018	     27.01472899	     45.06086091	      0.00000000	      0.00000000
     46.39200000	     -3.68960204	     -5.53678577	      3.09942327	      0.93694628	      0.93133654	      0.50771722	     11.64925157	      4.29098320	    -16.95525510	     15.10836843	     15.10836843	     10.28074946	      3.29073745	     -4.85780013	     31.48798693	    -11.93219884	      0.11032894	     53.27023182	     53.27023182	      8.74173928	    -16.31743309	      7.54744216	    -10.50407562	      7.59090369	      2.29900037	     28.25859572	    -15.03144810	      0.16952266	     48.27859521	     45.07970065	      0.00000000	      0.00000000	      0.17538893	     -6.76231330	     -5.44543091	     26.69209284	     45.02257732	      0.00000000	      0.00000000
     46.40500000	     -3.69639932	     -5.47361079	      3.50962166	      0.93608202	      0.93177338	      0.50750157	     10.92890115	      4.30503044	    -17.20740500	     14.48893828	     14.48893828	     10.38212677	      3.42440156	     -5.04494414	     31.89083379	    -11.60125665	      0.07334987	     49.94986775	     49.94986775	      8.88793737	    -16.25035442	      7.95541335	    -10.54938023	      7.66803654	      2.30079386	     29.59935682	    -15.11430042	      0.15678544	     50.37916499	     45.01741591	      0.00000000	      0.00000000	     -0.86301030	     -6.72102367	     -5.18443351	     26.51066760	     44.97393340	      0.00000000	      0.00000000
     46.41800000	     -3.91357806	     -5.65302346	      3.88247270	      0.93499328	      0.93149193	      0.50731391	     10.73523676	      4.49718089	    -17.46399602	     14.38674158	     14.38674158	     10.60824748	      3.29182084	     -5.16957970	     32.57058922	    -11.52013219	      0.12003272	     46.64877951	     46.64877951	      9.25091745	    -15.59302061	      8.27104015	    -10.28315375	      8.01995601	      2.75021757	     30.98475094	    -15.50325248	      0.02023385	     51.20576984	     45.00283330	      0.00000000	      0.00000000	     -1.59758221	     -6.59385411	     -5.13162395	     26.33801526	     44.95485116	      0.00000000	      0.00000000
     46.43100000	     -3.78978297	     -5.34362284	      4.22294423	      0.93427606	      0.93218201	      0.50683216	      9.74466897	      4.29183783	    -17.60225982	     13.55652736	     13.55652736	     10.69882881	      3.55416364	     -5.27965332	     32.35408108	    -10.82105567	      0.06492708	     42.68361360	     42.68361360	      9.34219710	    -15.30467994	      8.74064168	    -10.53393798	      7.76978157	      2.35556613	     32.19476846	    -15.12644593	      0.08424637	     53.97280003	     44.91264877	      0.00000000	      0.00000000	     -2.75427775	     -6.67635672	     -4.84077947	     26.20457520	     44.89497041	      0.00000000	      0.00000000
     46.44400000	     -3.94163826	     -5.39746918	      4.58361242	      0.93335792	      0.93192520	      0.50626673	      9.27099641	      4.35958760	    -18.07738047	     13.06796487	     13.06796487	     10.67125464	      3.95034003	     -5.98980628	     32.55792634	    -10.44415758	      0.26893376	     38.83736271	     38.83736271	      9.32952879	    -14.55835313	      8.16697093	    -10.53708593	      7.97292553	      2.95583992	     31.93358909	    -16.20676790	      0.34695748	     59.65140227	     44.73092964	      0.00000000	      0.00000000	     -3.81770062	     -6.74929472	     -3.61957932	     27.41606245	     44.70696584	      0.00000000	      0.00000000
     46.45700000	     -4.00391551	     -5.40042111	      4.87402052	      0.93247992	      0.93176484	      0.50572721	      8.77528551	      4.40230088	    -18.25954974	     12.74058187	     12.74058187	     10.80628132	      3.97768286	     -6.26981323	     32.48767352	    -10.06239788	      0.35914694	     34.83482764	     34.83482764	      9.32385308	    -13.41615102	      7.56525673	    -10.59145454	      8.07401261	      3.43988579	     32.46004417	    -16.65983471	      0.03042952	     62.90804264	     44.68975978	      0.00000000	      0.00000000	     -4.57481041	     -6.97241363	     -1.53635149	     27.69016786	     44.44073766	      0.00000000	      0.00000000
     46.47000000	     -4.10783944	     -5.42027670	      5.14927262	      0.93167046	      0.93151626	      0.50509804	      8.33491364	      4.44834808	    -18.41097924	     12.45010185	     12.45010185	     11.03408518	      4.05846218	     -6.32965882	     32.38468228	     -9.68933068	      0.45455915	     30.88796662	     30.88796662	      9.64858831	    -11.84878453	      7.93695354	    -10.51126247	      8.18301767	      3.29530352	     33.73346138	    -16.37991508	     -0.06607601	     64.35058880	     44.65949955	      0.00000000	      0.00000000	     -5.40593905	     -6.99108672	     -1.23499101	     27.51984965	     44.39557232	      0.00000000	      0.00000000
